<svg width="32" height="32" viewBox="0 0 43 43" fill="none"
    xmlns="http://www.w3.org/2000/svg">
    <path d="M40.9121 23.9609C41.0762 24.9453 41.1582 25.9297 40.9941 26.9141C40.8301 27.9805 40.584 28.8828 40.0918 29.6211C40.2559 30.6055 40.1738 31.5898 39.9277 32.5742C39.5996 33.5586 39.1895 34.4609 38.6152 35.1172C38.6152 37.4141 38.041 39.2188 36.7285 40.5312C35.416 41.8438 33.5293 42.5 31.1504 42.5H27.7871C26.1465 42.5 24.3418 42.2539 22.373 41.7617C21.2246 41.5156 19.584 41.0234 17.6152 40.2852L15.1543 39.4648C14.334 39.3008 13.7598 39.1367 13.2676 39.1367V39.875C13.2676 40.6133 12.9395 41.2695 12.4473 41.7617C11.9551 42.2539 11.2988 42.5 10.6426 42.5H2.76758C2.0293 42.5 1.37305 42.2539 0.880859 41.7617C0.388672 41.2695 0.142578 40.6133 0.142578 39.875V18.875C0.142578 18.2188 0.388672 17.5625 0.880859 17.0703C1.37305 16.5781 2.0293 16.25 2.76758 16.25H10.6426C11.5449 16.25 12.2832 16.6602 12.7754 17.3984C13.0215 17.3984 13.2676 17.3164 13.4316 17.2344C13.9238 16.9883 14.498 16.4141 15.3184 15.5117C15.8105 15.0195 16.5488 14.1172 17.5332 12.8047C18.6816 11.1641 19.584 10.0977 20.1582 9.60547C20.4863 9.27734 20.7324 8.78516 20.9785 8.04688C21.1426 7.63672 21.3066 6.98047 21.4707 5.99609C22.127 2.38672 23.4395 0.5 25.3262 0.5C27.623 0.5 29.3457 1.15625 30.4941 2.46875C31.5605 3.78125 32.1348 5.66797 32.1348 8.12891C32.1348 9.19531 31.9707 10.2617 31.6426 11.2461C31.3965 11.9023 31.0684 12.6406 30.5762 13.625L30.4121 13.8711H36.1543C37.7949 13.8711 39.1895 14.5273 40.3379 15.6758C41.4863 16.9062 42.1426 18.3008 42.1426 19.9414C42.1426 21.582 41.7324 22.8945 40.9121 23.9609ZM2.76758 39.875H10.6426V18.875H2.76758V39.875ZM37.5488 23.1406C38.2051 22.9766 38.6973 22.6484 39.0254 21.9922C39.3535 21.418 39.5176 20.6797 39.5176 19.8594C39.5176 19.0391 39.1895 18.2188 38.5332 17.5625C37.877 16.9062 37.0566 16.4961 36.1543 16.4961H26.9668C26.9668 15.7578 27.0488 15.0195 27.377 14.2812C27.541 13.8711 27.7871 13.2148 28.1973 12.3945C28.6074 11.5742 28.9355 10.918 29.0996 10.4258C29.3457 9.6875 29.5098 8.94922 29.5098 8.12891C29.5098 6.65234 29.2637 5.50391 28.9355 4.84766C28.2793 3.69922 27.1309 3.125 25.3262 3.125C24.998 3.45312 24.6699 3.94531 24.5059 4.60156C24.3418 5.01172 24.1777 5.66797 24.0137 6.48828C23.7676 7.71875 23.6035 8.62109 23.4395 9.11328C23.0293 10.0977 22.5371 10.918 21.9629 11.4922C21.3887 12.0664 20.4863 13.1328 19.3379 14.6914C18.0254 16.4141 17.041 17.5625 16.3848 18.2188C15.2363 19.3672 14.1699 19.8594 13.2676 19.8594V36.5117C13.9238 36.5117 14.7441 36.6758 15.7285 36.9219C16.3027 37.0859 17.2871 37.4141 18.6816 37.9062C20.4863 38.5625 21.9629 38.9727 22.9473 39.2188C24.6699 39.7109 26.3105 39.875 27.7871 39.875H31.1504C32.791 39.875 34.1035 39.4648 34.9238 38.5625C35.8262 37.5781 36.1543 36.1016 35.8262 34.0508C36.5645 33.7227 37.0566 32.9844 37.3848 31.918C37.7129 30.8516 37.5488 29.8672 37.0566 28.9648C37.6309 28.7188 38.041 28.1445 38.2871 27.3242C38.4512 26.5039 38.5332 25.6836 38.3691 24.8633C38.2051 24.043 37.959 23.4688 37.5488 23.1406ZM8.67383 35.9375C8.67383 35.4453 8.42773 34.9531 8.09961 34.543C7.68945 34.2148 7.19727 33.9688 6.70508 33.9688C6.13086 33.9688 5.63867 34.2148 5.31055 34.543C4.90039 34.9531 4.73633 35.4453 4.73633 35.9375C4.73633 36.5117 4.90039 37.0039 5.31055 37.332C5.63867 37.7422 6.13086 37.9062 6.70508 37.9062C7.19727 37.9062 7.68945 37.7422 8.09961 37.332C8.42773 37.0039 8.67383 36.5117 8.67383 35.9375Z" fill="#606770"/>
</svg>
