<svg width="32" height="32" viewBox="0 0 48 43" fill="none"
    xmlns="http://www.w3.org/2000/svg">
    <path d="M46.4902 16.5807C47.0645 17.237 47.3926 18.0573 47.3926 18.8776C47.3926 19.78 47.0645 20.5182 46.4902 21.1745L32.0527 36.2682C31.3965 36.9245 30.5762 37.2526 29.6738 37.2526C28.7715 37.2526 28.0332 37.0065 27.377 36.3503C26.7207 35.694 26.3926 34.9557 26.3926 33.9714V26.7526C21.6348 26.8347 18.2715 27.0807 16.2207 27.5729C13.5957 28.2292 11.873 29.4597 11.1348 31.1823C10.3145 32.987 10.4785 35.612 11.5449 39.1393C11.709 39.9597 11.627 40.6159 11.2168 41.2722C10.8066 41.9284 10.2324 42.2565 9.49414 42.4206C8.75586 42.5847 8.09961 42.5026 7.44336 42.0104C5.47461 40.6159 3.91602 38.9753 2.76758 37.0065C0.962891 34.2175 0.142578 31.1003 0.142578 27.655C0.142578 23.2253 1.37305 19.78 3.91602 17.155C6.04883 14.9401 9.33008 13.2995 13.5957 12.3151C16.877 11.4948 21.1426 11.0847 26.3926 11.0026V3.78387C26.3926 2.88153 26.7207 2.14325 27.377 1.487C28.0332 0.83075 28.7715 0.502625 29.6738 0.502625C30.5762 0.502625 31.3965 0.83075 32.0527 1.487L46.4902 16.5807ZM44.6035 19.3698C44.6855 19.2057 44.7676 19.0417 44.7676 18.8776C44.7676 18.7136 44.6855 18.5495 44.6035 18.3854L30.166 3.29169C29.9199 3.12762 29.6738 3.12762 29.4277 3.20966C29.0996 3.37372 29.0176 3.53778 29.0176 3.78387V13.6276C23.6035 13.6276 19.4199 13.8737 16.4668 14.3659C12.2012 15.0222 8.91992 16.3347 6.70508 18.2214C4.08008 20.4362 2.76758 23.5534 2.76758 27.655C2.76758 30.444 3.42383 32.987 4.81836 35.2018C5.80273 37.0065 7.19727 38.5651 9.00195 39.8776C7.68945 35.1198 7.68945 31.5925 9.16602 29.1315C10.4785 26.9987 12.9395 25.6042 16.6309 24.8659C19.2559 24.3737 23.3574 24.1276 29.0176 24.1276V33.9714C29.0176 34.2995 29.0996 34.4636 29.4277 34.5456C29.6738 34.7097 29.9199 34.6276 30.166 34.4636L44.6035 19.3698Z" fill="#606770"/>
</svg>
