<svg width="32" height="32" viewBox="0 0 43 43" fill="none"
    xmlns="http://www.w3.org/2000/svg">
    <path d="M36.8926 0.5C38.2871 0.5 39.5176 1.07422 40.584 2.05859C41.5684 3.125 42.1426 4.35547 42.1426 5.75V29.375C42.1426 30.8516 41.5684 32.082 40.584 33.0664C39.5176 34.1328 38.2871 34.625 36.8926 34.625H25.0801L14.8262 42.3359C14.6621 42.5 14.416 42.5 14.1699 42.5C13.9238 42.5 13.6777 42.418 13.5137 42.2539C13.3496 42.0898 13.2676 41.8438 13.2676 41.5156V34.625H5.39258C3.91602 34.625 2.68555 34.1328 1.70117 33.0664C0.634766 32.082 0.142578 30.8516 0.142578 29.375V5.75C0.142578 4.35547 0.634766 3.125 1.70117 2.05859C2.68555 1.07422 3.91602 0.5 5.39258 0.5H36.8926ZM39.5176 29.375V5.75C39.5176 5.09375 39.1895 4.4375 38.6973 3.94531C38.2051 3.45312 37.5488 3.125 36.8926 3.125H5.39258C4.6543 3.125 3.99805 3.45312 3.50586 3.94531C3.01367 4.4375 2.76758 5.09375 2.76758 5.75V29.375C2.76758 30.1133 3.01367 30.7695 3.50586 31.2617C3.99805 31.7539 4.6543 32 5.39258 32H15.8926V38.2344L24.1777 32H36.8926C37.5488 32 38.2051 31.7539 38.6973 31.2617C39.1895 30.7695 39.5176 30.1133 39.5176 29.375Z" fill="#606770"/>
</svg>
