<svg width="20" height="20" viewBox="0 0 52 52" fill="none"
    xmlns="http://www.w3.org/2000/svg">
    <circle cx="26.5" cy="26.5" r="23.5" fill="url(#paint0_linear_74_793)" stroke="white" strokeWidth="4"/>
    <path d="M19.4688 25.375C19.7266 25.375 19.9844 25.5039 20.1992 25.6758C20.3711 25.8906 20.5 26.1484 20.5 26.4062V36.7188C20.5 37.0195 20.3711 37.2773 20.1992 37.4492C19.9844 37.6641 19.7266 37.75 19.4688 37.75H16.0312C15.7305 37.75 15.4727 37.6641 15.3008 37.4492C15.0859 37.2773 15 37.0195 15 36.7188V26.4062C15 26.1484 15.0859 25.8906 15.3008 25.6758C15.4727 25.5039 15.7305 25.375 16.0312 25.375H19.4688ZM17.75 36.0312C18.0078 36.0312 18.2656 35.9453 18.4805 35.7305C18.6523 35.5586 18.7812 35.3008 18.7812 35C18.7812 34.7422 18.6523 34.4844 18.4805 34.2695C18.2656 34.0977 18.0078 33.9688 17.75 33.9688C17.4492 33.9688 17.1914 34.0977 17.0195 34.2695C16.8047 34.4844 16.7188 34.7422 16.7188 35C16.7188 35.3008 16.8047 35.5586 17.0195 35.7305C17.1914 35.9453 17.4492 36.0312 17.75 36.0312ZM31.5 19.2305C31.5 17.8555 31.1133 16.9102 30.3398 16.3086C29.8242 15.9648 29.1797 15.75 28.4062 15.75C28.0195 15.75 27.6758 16.0938 27.418 16.6953C27.2461 17.0391 27.1172 17.5547 26.9453 18.1992V18.2422C26.7734 18.8867 26.6445 19.3594 26.5586 19.6172C26.3867 20.1328 26.1289 20.5195 25.8711 20.7773C25.3984 21.207 24.8398 21.9375 24.1523 22.9258C23.293 24.1289 22.6055 25.0312 22.0469 25.6328C21.918 25.7188 21.875 25.8477 21.875 25.9766V35.1719C21.875 35.3438 21.918 35.4727 22.0039 35.5586C22.0898 35.6445 22.2188 35.6875 22.3906 35.6875C22.8633 35.6875 23.5938 35.9453 24.582 36.375C25.5703 36.8047 26.3438 37.1055 26.9453 37.2773C27.8906 37.6211 28.8359 37.75 29.7812 37.75H29.9102C31.1562 37.75 32.1016 37.707 32.7031 37.5781C33.6914 37.4062 34.3789 37.0625 34.7656 36.5039C35.1094 35.9883 35.2383 35.3438 35.0664 34.5703C35.4102 34.1836 35.625 33.668 35.7969 33.0664C35.9258 32.4648 35.9258 31.9062 35.7539 31.3477C36.0977 30.875 36.3125 30.3164 36.3984 29.6719C36.4414 29.0703 36.3555 28.4688 36.1406 27.9102H36.1836C36.3984 27.6523 36.5703 27.3516 36.7422 26.9648C36.9141 26.6211 37 26.2344 37 25.8047C37 25.1602 36.7422 24.6016 36.2266 24.0859C35.7109 23.5703 35.1094 23.3125 34.4219 23.3125H30.082C30.125 23.0547 30.2969 22.582 30.6406 21.9805C30.8984 21.4648 31.1133 21.0781 31.2422 20.7773C31.4141 20.2617 31.5 19.7461 31.5 19.2305Z" fill="white"/>
    <defs>
        <linearGradient id="paint0_linear_74_793" x1="26.5" y1="5" x2="26.5" y2="48" gradientUnits="userSpaceOnUse">
            <stop stop-color="#48ADF8"/>
            <stop offset="1" stop-color="#1E5FED"/>
        </linearGradient>
    </defs>
</svg>
