<svg xmlns="http://www.w3.org/2000/svg" width="31" height="31" viewBox="0 0 31 31" fill="none">
    <g clip-path="url(#clip0_109_640)">
        <path d="M0.815296 14.3198L1.03033 14.1317L1.02341 14.1256L11.8798 4.62625C12.6505 3.95189 13.9145 3.95189 14.6852 4.62625C15.4363 5.28349 15.4363 6.33551 14.6852 6.99274L14.6851 6.99282L7.39868 13.3745L6.89851 13.8125H7.56339H28.7859C29.905 13.8125 30.7502 14.5967 30.7502 15.5C30.7502 16.4033 29.905 17.1875 28.7859 17.1875H7.55647H6.89064L7.39193 17.6257L14.6921 24.0073C15.4432 24.6645 15.4432 25.7166 14.6921 26.3738C13.9214 27.0482 12.6574 27.0482 11.8867 26.3738L0.815296 16.6863C0.0641722 16.0291 0.0641722 14.977 0.815296 14.3198Z" fill="black" stroke="black" strokeWidth="0.5"/>
    </g>
    <defs>
        <clipPath id="clip0_109_640">
            <rect width="31" height="31" fill="white"/>
        </clipPath>
    </defs>
</svg>